<svg width="18" height="18" viewBox="0 0 18 18" fill="none" xmlns="http://www.w3.org/2000/svg">
<path fill-rule="evenodd" clip-rule="evenodd" d="M17.3337 8.99996C17.3337 13.6023 13.6027 17.3333 9.00033 17.3333C4.39795 17.3333 0.666992 13.6023 0.666992 8.99996C0.666992 4.39759 4.39795 0.666626 9.00033 0.666626C13.6027 0.666626 17.3337 4.39759 17.3337 8.99996ZM11.7993 11.7989C11.5552 12.043 11.1595 12.043 10.9154 11.7989L9.00033 9.88379L7.08524 11.7989C6.84116 12.043 6.44544 12.043 6.20136 11.7989C5.95728 11.5548 5.95728 11.1591 6.20136 10.915L8.11645 8.99991L6.20137 7.08483C5.95729 6.84075 5.95729 6.44502 6.20137 6.20095C6.44545 5.95687 6.84118 5.95687 7.08525 6.20095L9.00033 8.11602L10.9154 6.20095C11.1595 5.95688 11.5552 5.95688 11.7993 6.20095C12.0434 6.44503 12.0434 6.84076 11.7993 7.08484L9.88422 8.99991L11.7993 10.915C12.0434 11.1591 12.0434 11.5548 11.7993 11.7989Z" fill="#B5B4B8"/>
</svg>
